Fungal-Grow 300 Thickness 0.ufo
<glyph name="zero" format="1">
  <advance width="1303"/>
  <unicode hex="0030"/>
  <outline>
    <contour>
      <point x="651" y="1360" type="qcurve" smooth="yes"/>
      <point x="495" y="1360"/>
      <point x="338" y="1053"/>
      <point x="338" y="745" type="qcurve" smooth="yes"/>
      <point x="338" y="438"/>
      <point x="495" y="131"/>
      <point x="651" y="131" type="qcurve" smooth="yes"/>
      <point x="808" y="131"/>
      <point x="965" y="438"/>
      <point x="965" y="745" type="qcurve" smooth="yes"/>
      <point x="965" y="1053"/>
      <point x="808" y="1360"/>
    </contour>
    <contour>
      <point x="651" y="1520" type="qcurve" smooth="yes"/>
      <point x="902" y="1520"/>
      <point x="1167" y="1123"/>
      <point x="1167" y="745" type="qcurve" smooth="yes"/>
      <point x="1167" y="368"/>
      <point x="902" y="-29"/>
      <point x="651" y="-29" type="qcurve" smooth="yes"/>
      <point x="400" y="-29"/>
      <point x="135" y="368"/>
      <point x="135" y="745" type="qcurve" smooth="yes"/>
      <point x="135" y="1123"/>
      <point x="400" y="1520"/>
    </contour>
    <component base="blob1" xScale="0" xyScale="-1.2886" yScale="0" yxScale="1.2886" xOffset="462" yOffset="1353"/>
    <component base="blob2" xScale="0" xyScale="-1" yScale="0" yxScale="1" xOffset="752" yOffset="1851"/>
    <component base="blob3" xScale="0" xyScale="-1" yScale="0" yxScale="1" xOffset="945" yOffset="2277"/>
    <component base="blob4" xScale="0" xyScale="-0.8783" yScale="0" yxScale="0.8783" xOffset="914" yOffset="2741"/>
    <component base="blob5" xScale="0" xyScale="-1" yScale="0" yxScale="1" xOffset="802" yOffset="3173"/>
    <component base="blob6" xScale="0" xyScale="-0.9261" yScale="0" yxScale="0.9261" xOffset="976" yOffset="3634"/>
    <component base="blob7" xScale="0" xyScale="-0.9753" yScale="0" yxScale="0.9753" xOffset="1332" yOffset="3910"/>
    <component base="blob8" xScale="0" xyScale="-0.7047" yScale="0" yxScale="0.7047" xOffset="1524" yOffset="4258"/>
    <component base="blob9" xScale="0" xyScale="-0.4869" yScale="0" yxScale="0.4869" xOffset="1581" yOffset="4514"/>
    <component base="blob2" xScale="0" xyScale="-1" yScale="0" yxScale="1" xOffset="432" yOffset="815"/>
    <component base="blob3" xScale="0" xyScale="-1" yScale="0" yxScale="1" xOffset="585" yOffset="375"/>
    <component base="blob4" xScale="0" xyScale="-0.8783" yScale="0" yxScale="0.8783" xOffset="1010" yOffset="289"/>
    <component base="blob5" xScale="0" xyScale="-0.7656" yScale="0" yxScale="0.7656" xOffset="1276" yOffset="20"/>
    <component base="blob6" xScale="0" xyScale="-0.7732" yScale="0" yxScale="0.7732" xOffset="1379" yOffset="-318"/>
    <component base="blob7" xScale="0" xyScale="-0.7302" yScale="0" yxScale="0.7302" xOffset="1266" yOffset="-648"/>
    <component base="blob8" xScale="0" xyScale="-0.7047" yScale="0" yxScale="0.7047" xOffset="971" yOffset="-841"/>
    <component base="blob9" xScale="0" xyScale="-0.4869" yScale="0" yxScale="0.4869" xOffset="697" yOffset="-922"/>
    <contour>
      <point x="651" y="1520" type="move" name="above"/>
    </contour>
    <contour>
      <point x="651" y="0" type="move" name="below"/>
    </contour>
  </outline>
</glyph>
<glyph name="one" format="1">
  <advance width="1303"/>
  <unicode hex="0031"/>
  <outline>
    <contour>
      <point x="254" y="170" type="line"/>
      <point x="584" y="170" type="line"/>
      <point x="584" y="1309" type="line"/>
      <point x="225" y="1237" type="line"/>
      <point x="225" y="1421" type="line"/>
      <point x="582" y="1493" type="line"/>
      <point x="784" y="1493" type="line"/>
      <point x="784" y="170" type="line"/>
      <point x="1114" y="170" type="line"/>
      <point x="1114" y="0" type="line"/>
      <point x="254" y="0" type="line"/>
    </contour>
    <component base="blob1" xScale="0" xyScale="1.2886" yScale="0" yxScale="-1.2886" xOffset="-48" yOffset="1195"/>
    <component base="blob2" xScale="0" xyScale="1" yScale="0" yxScale="-1" xOffset="-449" yOffset="880"/>
    <component base="blob3" xScale="0" xyScale="1" yScale="0" yxScale="-1" xOffset="-899" yOffset="743"/>
    <component base="blob4" xScale="0" xyScale="0.8783" yScale="0" yxScale="-0.8783" xOffset="-1349" yOffset="768"/>
    <component base="blob5" xScale="0" xyScale="1" yScale="0" yxScale="-1" xOffset="-1758" yOffset="643"/>
    <component base="blob6" xScale="0" xyScale="1.1539" yScale="0" yxScale="-1.1539" xOffset="-2101" yOffset="262"/>
    <component base="blob7" xScale="0" xyScale="0.9753" yScale="0" yxScale="-0.9753" xOffset="-2536" yOffset="-65"/>
    <component base="blob8" xScale="0" xyScale="0.7047" yScale="0" yxScale="-0.7047" xOffset="-2778" yOffset="-375"/>
    <component base="blob9" xScale="0" xyScale="0.4869" yScale="0" yxScale="-0.4869" xOffset="-2858" yOffset="-617"/>
    <component base="blob2" xScale="0" xyScale="1" yScale="0" yxScale="-1" xOffset="399" yOffset="1449"/>
    <component base="blob3" xScale="0" xyScale="1" yScale="0" yxScale="-1" xOffset="785" yOffset="1329"/>
    <component base="blob4" xScale="0" xyScale="0.8783" yScale="0" yxScale="-0.8783" xOffset="941" yOffset="918"/>
    <component base="blob5" xScale="0" xyScale="1" yScale="0" yxScale="-1" xOffset="828" yOffset="511"/>
    <component base="blob1" xScale="0" xyScale="1.2886" yScale="0" yxScale="-1.2886" xOffset="996" yOffset="26"/>
    <component base="blob2" xScale="0" xyScale="1" yScale="0" yxScale="-1" xOffset="640" yOffset="146"/>
    <component base="blob2" xScale="0" xyScale="1" yScale="0" yxScale="-1" xOffset="233" yOffset="61"/>
    <component base="blob2" xScale="0" xyScale="1" yScale="0" yxScale="-1" xOffset="1400" yOffset="-158"/>
    <component base="blob3" xScale="0" xyScale="1" yScale="0" yxScale="-1" xOffset="1747" yOffset="-470"/>
    <component base="blob4" xScale="0" xyScale="0.8783" yScale="0" yxScale="-0.8783" xOffset="1986" yOffset="-838"/>
    <component base="blob5" xScale="0" xyScale="1" yScale="0" yxScale="-1" xOffset="2370" yOffset="-1078"/>
    <component base="blob6" xScale="0" xyScale="1.1539" yScale="0" yxScale="-1.1539" xOffset="2897" yOffset="-1098"/>
    <component base="blob7" xScale="0" xyScale="0.9753" yScale="0" yxScale="-0.9753" xOffset="3401" yOffset="-1026"/>
    <component base="blob8" xScale="0" xyScale="0.7047" yScale="0" yxScale="-0.7047" xOffset="3694" yOffset="-1241"/>
    <component base="blob9" xScale="0" xyScale="0.4869" yScale="0" yxScale="-0.4869" xOffset="3781" yOffset="-1505"/>
    <contour>
      <point x="651" y="1520" type="move" name="above"/>
    </contour>
    <contour>
      <point x="651" y="0" type="move" name="below"/>
    </contour>
  </outline>
</glyph>
<glyph name="F" format="1">
  <advance width="1178"/>
  <unicode hex="0046"/>
  <outline>
    <contour>
      <point x="201" y="1493" type="line"/>
      <point x="1059" y="1493" type="line"/>
      <point x="1059" y="1323" type="line"/>
      <point x="403" y="1323" type="line"/>
      <point x="403" y="883" type="line"/>
      <point x="995" y="883" type="line"/>
      <point x="995" y="713" type="line"/>
      <point x="403" y="713" type="line"/>
      <point x="403" y="0" type="line"/>
      <point x="201" y="0" type="line"/>
      <point x="201" y="1493" type="line"/>
    </contour>
    <component base="blob1" xScale="0" xyScale="1.2886" yScale="0" yxScale="1.2886" xOffset="1214" yOffset="785"/>
    <component base="blob2" xScale="0" xyScale="1" yScale="0" yxScale="1" xOffset="1672" yOffset="1133"/>
    <component base="blob3" xScale="0" xyScale="1" yScale="0" yxScale="1" xOffset="2150" yOffset="1293"/>
    <component base="blob4" xScale="0" xyScale="0.8783" yScale="0" yxScale="0.8783" xOffset="2554" yOffset="1332"/>
    <component base="blob5" xScale="0" xyScale="1.1501" yScale="0" yxScale="1.1501" xOffset="3035" yOffset="1313"/>
    <component base="blob6" xScale="0" xyScale="1.1539" yScale="0" yxScale="1.1539" xOffset="3589" yOffset="1343"/>
    <component base="blob7" xScale="0" xyScale="0.9753" yScale="0" yxScale="0.9753" xOffset="4075" yOffset="1173"/>
    <component base="blob8" xScale="0" xyScale="0.8709" yScale="0" yxScale="0.8709" xOffset="4468" yOffset="1001"/>
    <component base="blob9" xScale="0" xyScale="0.7265" yScale="0" yxScale="0.7265" xOffset="4747" yOffset="757"/>
    <component base="blob2" xScale="0" xyScale="1" yScale="0" yxScale="1" xOffset="712" yOffset="623"/>
    <component base="blob3" xScale="0" xyScale="1" yScale="0" yxScale="1" xOffset="273" yOffset="675"/>
    <component base="blob4" xScale="0" xyScale="0.8783" yScale="0" yxScale="0.8783" xOffset="-92" yOffset="886"/>
    <component base="blob5" xScale="0" xyScale="0.7968" yScale="0" yxScale="0.7968" xOffset="-485" yOffset="814"/>
    <component base="blob6" xScale="0" xyScale="0.8226" yScale="0" yxScale="0.8226" xOffset="-782" yOffset="559"/>
    <component base="blob7" xScale="0" xyScale="0.9753" yScale="0" yxScale="0.9753" xOffset="-1223" yOffset="431"/>
    <component base="blob8" xScale="0" xyScale="0.8709" yScale="0" yxScale="0.8709" xOffset="-1619" yOffset="434"/>
    <component base="blob9" xScale="0" xyScale="0.7265" yScale="0" yxScale="0.7265" xOffset="-1920" yOffset="586"/>
    <contour>
      <point x="670" y="1520" type="move" name="above"/>
    </contour>
    <contour>
      <point x="670" y="0" type="move" name="below"/>
    </contour>
    <contour>
      <point x="0" y="1520" type="move" name="half"/>
    </contour>
  </outline>
</glyph>
<glyph name="uni01CF" format="1">
  <advance width="604"/>
  <unicode hex="01CF"/>
  <outline>
    <component base="I"/>
    <component base="Caron" xOffset="815" yOffset="373"/>
    <contour>
      <point x="303" y="0" type="move" name="below"/>
    </contour>
    <contour>
      <point x="303" y="0" type="move" name="cedilla"/>
    </contour>
  </outline>
</glyph>
<glyph name="uni029F" format="1">
  <advance width="1038"/>
  <unicode hex="029F"/>
  <outline>
    <contour>
      <point x="186" y="1120" type="line"/>
      <point x="370" y="1120" type="line"/>
      <point x="370" y="147" type="line"/>
      <point x="1009" y="147" type="line"/>
      <point x="1009" y="0" type="line"/>
      <point x="186" y="0" type="line"/>
    </contour>
    <contour>
      <point x="287" y="1147" type="move" name="above"/>
    </contour>
    <contour>
      <point x="607" y="0" type="move" name="below"/>
    </contour>
  </outline>
</glyph>
<glyph name="uni0326" format="1">
  <advance width="0"/>
  <unicode hex="0326"/>
  <outline>
    <contour>
      <point x="-580" y="-172" type="line"/>
      <point x="-369" y="-172" type="line"/>
      <point x="-533" y="-492" type="line"/>
      <point x="-662" y="-492" type="line"/>
    </contour>
    <contour>
      <point x="-512" y="-1" type="move" name="_Ligature below"/>
    </contour>
    <contour>
      <point x="-512" y="-1" type="move" name="_below"/>
    </contour>
    <contour>
      <point x="-512" y="0" type="move" name="_below-mark"/>
    </contour>
    <contour>
      <point x="-512" y="-492" type="move" name="below-mark"/>
    </contour>
  </outline>
</glyph>
<glyph name="uni041E" format="1">
  <advance width="1612"/>
  <unicode hex="041E"/>
  <outline>
    <component base="O"/>
    <contour>
      <point x="807" y="1520" type="move" name="above"/>
    </contour>
  </outline>
</glyph>
<glyph name="uni0430" format="1">
  <advance width="1255"/>
  <unicode hex="0430"/>
  <outline>
    <component base="a"/>
    <contour>
      <point x="596" y="1147" type="move" name="above"/>
    </contour>
  </outline>
</glyph>
<glyph name="uni0456" format="1">
  <advance width="569"/>
  <unicode hex="0456"/>
  <outline>
    <component base="i"/>
    <contour>
      <point x="287" y="1583" type="move" name="above"/>
    </contour>
    <contour>
      <point x="287" y="0" type="move" name="below"/>
    </contour>
  </outline>
</glyph>
<glyph name="uni0646" format="1">
  <advance width="1504"/>
  <unicode hex="0646"/>
  <outline>
    <component base="uni06BA"/>
    <component base="arabic_dot" xOffset="575" yOffset="800"/>
    <contour>
      <point x="650" y="1000" type="move" name="rtl-above"/>
    </contour>
    <contour>
      <point x="750" y="-450" type="move" name="rtl-below"/>
    </contour>
  </outline>
</glyph>
<glyph name="uni064A" format="1">
  <advance width="1603"/>
  <unicode hex="064A"/>
  <outline>
    <component base="uni0649"/>
    <component base="arabic_2dots" xOffset="500" yOffset="-500"/>
    <contour>
      <point x="500" y="750" type="move" name="rtl-above"/>
    </contour>
    <contour>
      <point x="700" y="-550" type="move" name="rtl-below"/>
    </contour>
  </outline>
</glyph>
<glyph name="uni0681" format="1">
  <advance width="1322"/>
  <unicode hex="0681"/>
  <outline>
    <component base="uni062D"/>
    <component base="uni0654" xOffset="138" yOffset="-200"/>
    <contour>
      <point x="650" y="1550" type="move" name="rtl-above"/>
    </contour>
    <contour>
      <point x="812" y="-600" type="move" name="rtl-below"/>
    </contour>
  </outline>
</glyph>
<glyph name="uni0682" format="1">
  <advance width="1322"/>
  <unicode hex="0682"/>
  <outline>
    <component base="uni062D"/>
    <component base="arabic_2dots_a" xOffset="575" yOffset="1300"/>
    <contour>
      <point x="650" y="1500" type="move" name="rtl-above"/>
    </contour>
    <contour>
      <point x="812" y="-600" type="move" name="rtl-below"/>
    </contour>
  </outline>
</glyph>
<glyph name="uni068B" format="1">
  <advance width="912"/>
  <unicode hex="068B"/>
  <outline>
    <component base="arabic_dot" xOffset="425" yOffset="-350"/>
    <component base="uni062F"/>
    <component base="uni0615" xOffset="-62" yOffset="-250"/>
    <contour>
      <point x="450" y="1600" type="move" name="rtl-above"/>
    </contour>
    <contour>
      <point x="500" y="-400" type="move" name="rtl-below"/>
    </contour>
  </outline>
</glyph>
<glyph name="uni0694" format="1">
  <advance width="1085"/>
  <unicode hex="0694"/>
  <outline>
    <component base="uni0631"/>
    <component base="arabic_dot" xOffset="820" yOffset="-440"/>
    <contour>
      <point x="700" y="750" type="move" name="rtl-above"/>
    </contour>
    <contour>
      <point x="500" y="-500" type="move" name="rtl-below"/>
    </contour>
  </outline>
</glyph>
<glyph name="uni0699" format="1">
  <advance width="989"/>
  <unicode hex="0699"/>
  <outline>
    <component base="uni0631"/>
    <component base="arabic_4dots" xOffset="500" yOffset="1050"/>
    <contour>
      <point x="700" y="1250" type="move" name="rtl-above"/>
    </contour>
    <contour>
      <point x="500" y="-500" type="move" name="rtl-below"/>
    </contour>
  </outline>
</glyph>
<glyph name="uni06B4" format="1">
  <advance width="1833"/>
  <unicode hex="06B4"/>
  <outline>
    <component base="uni06AF"/>
    <component base="arabic_3dots" xOffset="900" yOffset="1700"/>
    <contour>
      <point x="500" y="1400" type="move" name="rtl-above"/>
    </contour>
    <contour>
      <point x="800" y="-150" type="move" name="rtl-below"/>
    </contour>
  </outline>
</glyph>
<glyph name="uni1E0F" format="1">
  <advance width="1300"/>
  <unicode hex="1E0F"/>
  <outline>
    <component base="uni0331" xOffset="1126" yOffset="1"/>
    <component base="d"/>
    <contour>
      <point x="1022" y="1520" type="move" name="above"/>
    </contour>
    <contour>
      <point x="614" y="-321" type="move" name="below"/>
    </contour>
    <contour>
      <point x="0" y="1520" type="move" name="half"/>
    </contour>
  </outline>
</glyph>
<glyph name="uni1E10" format="1">
  <advance width="1577"/>
  <unicode hex="1E10"/>
  <outline>
    <component base="D"/>
    <component base="cedilla" xOffset="91" yOffset="2"/>
    <contour>
      <point x="748" y="1520" type="move" name="above"/>
    </contour>
    <contour>
      <point x="748" y="-396" type="move" name="below"/>
    </contour>
    <contour>
      <point x="0" y="1520" type="move" name="half"/>
    </contour>
  </outline>
</glyph>
<glyph name="uni1EFA" format="1">
  <advance width="1575"/>
  <unicode hex="1EFA"/>
  <outline>
    <contour>
      <point x="201" y="1493" type="line"/>
      <point x="403" y="1493" type="line"/>
      <point x="403" y="170" type="line"/>
      <point x="635" y="170" type="line"/>
      <point x="635" y="1493" type="line"/>
      <point x="837" y="1493" type="line"/>
      <point x="837" y="170" type="line"/>
      <point x="1564" y="170" type="line"/>
      <point x="1564" y="0" type="line"/>
      <point x="201" y="0" type="line"/>
    </contour>
    <contour>
      <point x="915" y="1520" type="move" name="above"/>
    </contour>
    <contour>
      <point x="915" y="0" type="move" name="below"/>
    </contour>
  </outline>
</glyph>
<glyph name="uni2124" format="1">
  <advance width="1525"/>
  <unicode hex="2124"/>
  <outline>
    <contour>
      <point x="456" y="100" type="line"/>
      <point x="1280" y="1393" type="line"/>
      <point x="1046" y="1393" type="line"/>
      <point x="222" y="100" type="line"/>
    </contour>
    <contour>
      <point x="115" y="1493" type="line"/>
      <point x="1410" y="1493" type="line"/>
      <point x="1410" y="1393" type="line"/>
      <point x="586" y="100" type="line"/>
      <point x="1433" y="100" type="line"/>
      <point x="1433" y="0" type="line"/>
      <point x="92" y="0" type="line"/>
      <point x="92" y="100" type="line"/>
      <point x="916" y="1393" type="line"/>
      <point x="115" y="1393" type="line"/>
    </contour>
    <contour>
      <point x="762" y="1506" type="move" name="above"/>
    </contour>
    <contour>
      <point x="762" y="0" type="move" name="below"/>
    </contour>
  </outline>
</glyph>
<glyph name="uni2D4F" format="1">
  <advance width="604"/>
  <unicode hex="2D4F"/>
  <outline>
    <component base="I"/>
    <contour>
      <point x="303" y="1520" type="move" name="above"/>
    </contour>
    <contour>
      <point x="303" y="0" type="move" name="below"/>
    </contour>
  </outline>
</glyph>
<glyph name="uniA78D" format="1">
  <advance width="1404"/>
  <unicode hex="A78D"/>
  <outline>
    <component base="uni0427"/>
    <contour>
      <point x="690" y="1520" type="move" name="above"/>
    </contour>
  </outline>
</glyph>
<glyph name="uniA7F8" format="1">
  <advance width="1181"/>
  <unicode hex="A7F8"/>
  <outline>
    <contour>
      <point x="232" y="1504" type="line"/>
      <point x="360" y="1504" type="line"/>
      <point x="360" y="1379" type="line"/>
      <point x="822" y="1379" type="line"/>
      <point x="822" y="1504" type="line"/>
      <point x="949" y="1504" type="line"/>
      <point x="949" y="1379" type="line"/>
      <point x="1055" y="1379" type="line"/>
      <point x="1055" y="1287" type="line"/>
      <point x="949" y="1287" type="line"/>
      <point x="949" y="668" type="line"/>
      <point x="822" y="668" type="line"/>
      <point x="822" y="1066" type="line"/>
      <point x="360" y="1066" type="line"/>
      <point x="360" y="668" type="line"/>
      <point x="232" y="668" type="line"/>
      <point x="232" y="1287" type="line"/>
      <point x="127" y="1287" type="line"/>
      <point x="127" y="1379" type="line"/>
      <point x="232" y="1379" type="line"/>
    </contour>
    <contour>
      <point x="360" y="1287" type="line"/>
      <point x="360" y="1161" type="line"/>
      <point x="822" y="1161" type="line"/>
      <point x="822" y="1287" type="line"/>
    </contour>
    <contour>
      <point x="591" y="1519" type="move" name="above"/>
    </contour>
    <contour>
      <point x="591" y="668" type="move" name="below"/>
    </contour>
  </outline>
</glyph>
<glyph name="uniFB71" format="1">
  <advance width="1036"/>
  <unicode hex="FB71"/>
  <outline>
    <component base="uni06A1.medi"/>
    <component base="arabic_4dots" xOffset="318" yOffset="1250"/>
    <contour>
      <point x="518" y="1450" type="move" name="rtl-above"/>
    </contour>
    <contour>
      <point x="518" y="-150" type="move" name="rtl-below"/>
    </contour>
  </outline>
</glyph>
<glyph name="uniFBA1" format="1">
  <advance width="1559"/>
  <unicode hex="FBA1"/>
  <outline>
    <component base="uniFB9F"/>
    <component base="uni0615" xOffset="200" yOffset="-725"/>
    <contour>
      <point x="700" y="1125" type="move" name="rtl-above"/>
    </contour>
    <contour>
      <point x="750" y="-600" type="move" name="rtl-below"/>
    </contour>
  </outline>
</glyph>
<glyph name="uniFE78" format="1">
  <advance width="600"/>
  <unicode hex="FE78"/>
  <outline>
    <component base="uni064F" xOffset="-212"/>
    <contour>
      <point x="300" y="1850" type="move" name="rtl-above"/>
    </contour>
    <contour>
      <point x="300" y="-100" type="move" name="rtl-below"/>
    </contour>
  </outline>
</glyph>
<glyph name="uniFE8D" format="1">
  <advance width="569"/>
  <unicode hex="FE8D"/>
  <outline>
    <component base="uni0627"/>
    <contour>
      <point x="285" y="1650" type="move" name="rtl-above"/>
    </contour>
    <contour>
      <point x="285" y="-100" type="move" name="rtl-below"/>
    </contour>
  </outline>
</glyph>
<glyph name="uniFE96" format="1">
  <advance width="2011"/>
  <unicode hex="FE96"/>
  <outline>
    <component base="uni066E.fina"/>
    <component base="arabic_2dots" xOffset="700" yOffset="650"/>
    <contour>
      <point x="900" y="850" type="move" name="rtl-above"/>
    </contour>
    <contour>
      <point x="900" y="-150" type="move" name="rtl-below"/>
    </contour>
  </outline>
</glyph>
<glyph name="uniFED0" format="1">
  <advance width="988"/>
  <unicode hex="FED0"/>
  <outline>
    <component base="uniFECC"/>
    <component base="arabic_dot" xOffset="419" yOffset="950"/>
    <contour>
      <point x="494" y="1150" type="move" name="rtl-above"/>
    </contour>
    <contour>
      <point x="494" y="-100" type="move" name="rtl-below"/>
    </contour>
  </outline>
</glyph>
<glyph name="uniFED8" format="1">
  <advance width="1036"/>
  <unicode hex="FED8"/>
  <outline>
    <component base="uni066F.medi"/>
    <component base="arabic_2dots" xOffset="312" yOffset="1000"/>
    <contour>
      <point x="518" y="1200" type="move" name="rtl-above"/>
    </contour>
    <contour>
      <point x="518" y="-150" type="move" name="rtl-below"/>
    </contour>
  </outline>
</glyph>
<glyph name="uniFEF9" format="1">
  <advance width="1168"/>
  <unicode hex="FEF9"/>
  <outline>
    <component base="uniFEFB"/>
    <component base="uni0655" xOffset="-312"/>
    <contour>
      <point x="150" y="1500" type="move" name="Ligature rtl-above"/>
    </contour>
    <contour>
      <point x="200" y="-550" type="move" name="Ligature rtl-below"/>
    </contour>
  </outline>
</glyph>
<glyph name="u1D569" format="1">
  <advance width="1384"/>
  <unicode hex="1D569"/>
  <outline>
    <contour>
      <point x="275" y="1020" type="line"/>
      <point x="958" y="100" type="line"/>
      <point x="1109" y="100" type="line"/>
      <point x="426" y="1020" type="line"/>
    </contour>
    <contour>
      <point x="76" y="1120" type="line"/>
      <point x="476" y="1120" type="line"/>
      <point x="761" y="737" type="line"/>
      <point x="1046" y="1120" type="line"/>
      <point x="1170" y="1120" type="line"/>
      <point x="823" y="653" type="line"/>
      <point x="1308" y="0" type="line"/>
      <point x="908" y="0" type="line"/>
      <point x="623" y="383" type="line"/>
      <point x="338" y="0" type="line"/>
      <point x="214" y="0" type="line"/>
      <point x="561" y="467" type="line"/>
    </contour>
    <contour>
      <point x="692" y="1147" type="move" name="above"/>
    </contour>
    <contour>
      <point x="692" y="0" type="move" name="below"/>
    </contour>
  </outline>
</glyph>
<glyph name="uni066E.medi" format="1">
  <advance width="618"/>
  <outline>
    <component base="uniFBE9"/>
    <contour>
      <point x="299" y="1000" type="move" name="rtl-above"/>
    </contour>
    <contour>
      <point x="299" y="-100" type="move" name="rtl-below"/>
    </contour>
  </outline>
</glyph>
<glyph name="uni069C.init" format="1">
  <advance width="1716"/>
  <outline>
    <component base="uniFEB3"/>
    <component base="arabic_3dots" xOffset="650" yOffset="800"/>
    <component base="arabic_3dots_a" xOffset="800" yOffset="-250"/>
    <contour>
      <point x="850" y="1250" type="move" name="rtl-above"/>
    </contour>
    <contour>
      <point x="1000" y="-550" type="move" name="rtl-below"/>
    </contour>
  </outline>
</glyph>
<glyph name="uni06A5.medi" format="1">
  <advance width="1036"/>
  <outline>
    <component base="uni06A1.medi"/>
    <component base="arabic_3dots_a" xOffset="300" yOffset="-300"/>
    <contour>
      <point x="518" y="950" type="move" name="rtl-above"/>
    </contour>
    <contour>
      <point x="500" y="-600" type="move" name="rtl-below"/>
    </contour>
  </outline>
</glyph>
<glyph name="uni06AE.fina" format="1">
  <advance width="1726"/>
  <outline>
    <component base="uniFEDA"/>
    <component base="arabic_3dots_a" xOffset="600" yOffset="-350"/>
    <contour>
      <point x="700" y="1500" type="move" name="rtl-above"/>
    </contour>
    <contour>
      <point x="800" y="-650" type="move" name="rtl-below"/>
    </contour>
  </outline>
</glyph>
<glyph name="uni06BA.init" format="1">
  <advance width="570"/>
  <outline>
    <component base="uni066E.init"/>
    <contour>
      <point x="299" y="1000" type="move" name="rtl-above"/>
    </contour>
    <contour>
      <point x="299" y="-100" type="move" name="rtl-below"/>
    </contour>
  </outline>
</glyph>
<glyph name="uni06CE.init" format="1">
  <advance width="570"/>
  <outline>
    <component base="uni065A" xOffset="-213" yOffset="-500"/>
    <component base="arabic_2dots" xOffset="99" yOffset="-300"/>
    <component base="uniFBE8"/>
    <contour>
      <point x="299" y="1200" type="move" name="rtl-above"/>
    </contour>
    <contour>
      <point x="299" y="-350" type="move" name="rtl-below"/>
    </contour>
  </outline>
</glyph>
